<svg width="218" height="72" viewBox="0 0 218 72" fill="none" xmlns="http://www.w3.org/2000/svg">
<g filter="url(#filter0_d_28_40)">
<circle cx="36" cy="28" r="20" fill="white"/>
</g>
<path d="M41.9861 28L32.9741 33.1753L32.9982 22.783L41.9861 28Z" fill="#FFB900"/>
<path d="M88.036 21.436L84.526 34H81.556L79.198 25.054L76.732 34L73.78 34.018L70.396 21.436H73.096L75.31 31.192L77.866 21.436H80.674L83.086 31.138L85.318 21.436H88.036ZM89.0335 28.978C89.0335 27.97 89.2315 27.076 89.6275 26.296C90.0355 25.516 90.5815 24.916 91.2655 24.496C91.9615 24.076 92.7355 23.866 93.5875 23.866C94.3315 23.866 94.9795 24.016 95.5315 24.316C96.0955 24.616 96.5455 24.994 96.8815 25.45V24.028H99.4195V34H96.8815V32.542C96.5575 33.01 96.1075 33.4 95.5315 33.712C94.9675 34.012 94.3135 34.162 93.5695 34.162C92.7295 34.162 91.9615 33.946 91.2655 33.514C90.5815 33.082 90.0355 32.476 89.6275 31.696C89.2315 30.904 89.0335 29.998 89.0335 28.978ZM96.8815 29.014C96.8815 28.402 96.7615 27.88 96.5215 27.448C96.2815 27.004 95.9575 26.668 95.5495 26.44C95.1415 26.2 94.7035 26.08 94.2355 26.08C93.7675 26.08 93.3355 26.194 92.9395 26.422C92.5435 26.65 92.2195 26.986 91.9675 27.43C91.7275 27.862 91.6075 28.378 91.6075 28.978C91.6075 29.578 91.7275 30.106 91.9675 30.562C92.2195 31.006 92.5435 31.348 92.9395 31.588C93.3475 31.828 93.7795 31.948 94.2355 31.948C94.7035 31.948 95.1415 31.834 95.5495 31.606C95.9575 31.366 96.2815 31.03 96.5215 30.598C96.7615 30.154 96.8815 29.626 96.8815 29.014ZM104.815 26.098V30.922C104.815 31.258 104.893 31.504 105.049 31.66C105.217 31.804 105.493 31.876 105.877 31.876H107.047V34H105.463C103.339 34 102.277 32.968 102.277 30.904V26.098H101.089V24.028H102.277V21.562H104.815V24.028H107.047V26.098H104.815ZM108.211 29.014C108.211 27.982 108.421 27.082 108.841 26.314C109.261 25.534 109.843 24.934 110.587 24.514C111.331 24.082 112.183 23.866 113.143 23.866C114.379 23.866 115.399 24.178 116.203 24.802C117.019 25.414 117.565 26.278 117.841 27.394H115.123C114.979 26.962 114.733 26.626 114.385 26.386C114.049 26.134 113.629 26.008 113.125 26.008C112.405 26.008 111.835 26.272 111.415 26.8C110.995 27.316 110.785 28.054 110.785 29.014C110.785 29.962 110.995 30.7 111.415 31.228C111.835 31.744 112.405 32.002 113.125 32.002C114.145 32.002 114.811 31.546 115.123 30.634H117.841C117.565 31.714 117.019 32.572 116.203 33.208C115.387 33.844 114.367 34.162 113.143 34.162C112.183 34.162 111.331 33.952 110.587 33.532C109.843 33.1 109.261 32.5 108.841 31.732C108.421 30.952 108.211 30.046 108.211 29.014ZM125.303 23.884C126.059 23.884 126.731 24.052 127.319 24.388C127.907 24.712 128.363 25.198 128.687 25.846C129.023 26.482 129.191 27.25 129.191 28.15V34H126.671V28.492C126.671 27.7 126.473 27.094 126.077 26.674C125.681 26.242 125.141 26.026 124.457 26.026C123.761 26.026 123.209 26.242 122.801 26.674C122.405 27.094 122.207 27.7 122.207 28.492V34H119.687V20.68H122.207V25.27C122.531 24.838 122.963 24.502 123.503 24.262C124.043 24.01 124.643 23.884 125.303 23.884ZM147.163 21.436L142.555 34H139.495L134.887 21.436H137.587L141.043 31.426L144.481 21.436H147.163ZM149.952 22.84C149.508 22.84 149.136 22.702 148.836 22.426C148.548 22.138 148.404 21.784 148.404 21.364C148.404 20.944 148.548 20.596 148.836 20.32C149.136 20.032 149.508 19.888 149.952 19.888C150.396 19.888 150.762 20.032 151.05 20.32C151.35 20.596 151.5 20.944 151.5 21.364C151.5 21.784 151.35 22.138 151.05 22.426C150.762 22.702 150.396 22.84 149.952 22.84ZM151.194 24.028V34H148.674V24.028H151.194ZM153.035 28.978C153.035 27.97 153.233 27.076 153.629 26.296C154.037 25.516 154.589 24.916 155.285 24.496C155.981 24.076 156.755 23.866 157.607 23.866C158.255 23.866 158.873 24.01 159.461 24.298C160.049 24.574 160.517 24.946 160.865 25.414V20.68H163.421V34H160.865V32.524C160.553 33.016 160.115 33.412 159.551 33.712C158.987 34.012 158.333 34.162 157.589 34.162C156.749 34.162 155.981 33.946 155.285 33.514C154.589 33.082 154.037 32.476 153.629 31.696C153.233 30.904 153.035 29.998 153.035 28.978ZM160.883 29.014C160.883 28.402 160.763 27.88 160.523 27.448C160.283 27.004 159.959 26.668 159.551 26.44C159.143 26.2 158.705 26.08 158.237 26.08C157.769 26.08 157.337 26.194 156.941 26.422C156.545 26.65 156.221 26.986 155.969 27.43C155.729 27.862 155.609 28.378 155.609 28.978C155.609 29.578 155.729 30.106 155.969 30.562C156.221 31.006 156.545 31.348 156.941 31.588C157.349 31.828 157.781 31.948 158.237 31.948C158.705 31.948 159.143 31.834 159.551 31.606C159.959 31.366 160.283 31.03 160.523 30.598C160.763 30.154 160.883 29.626 160.883 29.014ZM175.153 28.798C175.153 29.158 175.129 29.482 175.081 29.77H167.791C167.851 30.49 168.103 31.054 168.547 31.462C168.991 31.87 169.537 32.074 170.185 32.074C171.121 32.074 171.787 31.672 172.183 30.868H174.901C174.613 31.828 174.061 32.62 173.245 33.244C172.429 33.856 171.427 34.162 170.239 34.162C169.279 34.162 168.415 33.952 167.647 33.532C166.891 33.1 166.297 32.494 165.865 31.714C165.445 30.934 165.235 30.034 165.235 29.014C165.235 27.982 165.445 27.076 165.865 26.296C166.285 25.516 166.873 24.916 167.629 24.496C168.385 24.076 169.255 23.866 170.239 23.866C171.187 23.866 172.033 24.07 172.777 24.478C173.533 24.886 174.115 25.468 174.523 26.224C174.943 26.968 175.153 27.826 175.153 28.798ZM172.543 28.078C172.531 27.43 172.297 26.914 171.841 26.53C171.385 26.134 170.827 25.936 170.167 25.936C169.543 25.936 169.015 26.128 168.583 26.512C168.163 26.884 167.905 27.406 167.809 28.078H172.543ZM181.42 34.162C180.46 34.162 179.596 33.952 178.828 33.532C178.06 33.1 177.454 32.494 177.01 31.714C176.578 30.934 176.362 30.034 176.362 29.014C176.362 27.994 176.584 27.094 177.028 26.314C177.484 25.534 178.102 24.934 178.882 24.514C179.662 24.082 180.532 23.866 181.492 23.866C182.452 23.866 183.322 24.082 184.102 24.514C184.882 24.934 185.494 25.534 185.938 26.314C186.394 27.094 186.622 27.994 186.622 29.014C186.622 30.034 186.388 30.934 185.92 31.714C185.464 32.494 184.84 33.1 184.048 33.532C183.268 33.952 182.392 34.162 181.42 34.162ZM181.42 31.966C181.876 31.966 182.302 31.858 182.698 31.642C183.106 31.414 183.43 31.078 183.67 30.634C183.91 30.19 184.03 29.65 184.03 29.014C184.03 28.066 183.778 27.34 183.274 26.836C182.782 26.32 182.176 26.062 181.456 26.062C180.736 26.062 180.13 26.32 179.638 26.836C179.158 27.34 178.918 28.066 178.918 29.014C178.918 29.962 179.152 30.694 179.62 31.21C180.1 31.714 180.7 31.966 181.42 31.966Z" fill="#171100"/>
<defs>
<filter id="filter0_d_28_40" x="0" y="0" width="72" height="72" filterUnits="userSpaceOnUse" color-interpolation-filters="sRGB">
<feFlood flood-opacity="0" result="BackgroundImageFix"/>
<feColorMatrix in="SourceAlpha" type="matrix" values="0 0 0 0 0 0 0 0 0 0 0 0 0 0 0 0 0 0 127 0" result="hardAlpha"/>
<feOffset dy="8"/>
<feGaussianBlur stdDeviation="8"/>
<feComposite in2="hardAlpha" operator="out"/>
<feColorMatrix type="matrix" values="0 0 0 0 0 0 0 0 0 0 0 0 0 0 0 0 0 0 0.07 0"/>
<feBlend mode="normal" in2="BackgroundImageFix" result="effect1_dropShadow_28_40"/>
<feBlend mode="normal" in="SourceGraphic" in2="effect1_dropShadow_28_40" result="shape"/>
</filter>
</defs>
</svg>
